<svg id="Layer_1" data-name="Layer 1" xmlns="http://www.w3.org/2000/svg" viewBox="0 0 150 34.9"><defs><style>.cls-1{fill:#fff;}.cls-2,.cls-3{fill:none;}.cls-3{stroke:#fff;stroke-width:1.52px;}</style></defs><title>cumulus-networks-logo-white</title><g id="Group_2879" data-name="Group 2879"><path id="Union_116" data-name="Union 116" class="cls-1" d="M90.81,15.66V5.93h3v9.63c0,3.17,1.64,4.81,4.3,4.81s4.3-1.54,4.3-4.71V5.93h3v9.63c0,5-2.87,7.57-7.27,7.57S90.81,20.57,90.81,15.66Zm-33,0V5.93h3v9.63c0,3.17,1.64,4.81,4.3,4.81s4.3-1.54,4.3-4.71V5.93h3v9.63c0,5-2.87,7.57-7.27,7.57s-7.26-2.56-7.26-7.47Zm-39.72,0V5.93h3v9.63c0,3.17,1.64,4.81,4.3,4.81s4.3-1.54,4.3-4.71V5.93h3v9.63c0,5-2.87,7.57-7.27,7.57s-7.27-2.56-7.27-7.47ZM0,14.43a8.59,8.59,0,0,1,8.37-8.8H8.7a8.89,8.89,0,0,1,6.66,2.66l-1.95,2.15a6.68,6.68,0,0,0-4.71-2,6,6,0,0,0-.1,12,6.56,6.56,0,0,0,4.81-2.15l1.95,2a8.64,8.64,0,0,1-6.86,3A8.52,8.52,0,0,1,0,14.59Zm108.22,5.94L110,18.22a7.65,7.65,0,0,0,5.32,2.15c1.84,0,3-.82,3-2.15s-.72-1.84-3.79-2.56c-3.58-.82-5.63-1.94-5.63-5,0-2.87,2.46-4.92,5.73-4.92a9.21,9.21,0,0,1,6.15,2.15l-1.64,2.25a7.86,7.86,0,0,0-4.61-1.74c-1.74,0-2.76.93-2.76,2,0,1.33.82,1.84,4,2.66,3.58.82,5.43,2.15,5.43,4.92,0,3.17-2.46,5-6,5a9.79,9.79,0,0,1-6.86-2.66ZM36.86,22.93v-17h3.27l5.12,8,5.12-8h3.18V22.82h-3V10.75l-5.33,8h-.1l-5.32-7.88V22.93Zm39.82-.1V5.93h3V20.16h8.91v2.66Z"/><path id="Union_115" data-name="Union 115" class="cls-1" d="M128.66,19.42l1.7,1.45-15.26,14Zm7.15,8.26.32-1.45c.1-.41.32-.82.75-.82l1.92-.21a.75.75,0,0,1,.85.62h0c0,.42-.21,1.76-1,1.76l-2,.62C136.23,28.19,135.7,28.19,135.81,27.68Zm-2.46-3.1c-1-.82,1.17-4.95,1.71-6a41.52,41.52,0,0,1,4.06-5.79c.21-.31.1-.2-.11-.1A44.53,44.53,0,0,0,135.59,16c-1.38,1.55-2.77,3.2-3,3.51-.43.51-1,.62-1.29.31l-1.81-1.66a.66.66,0,0,1-.09-.94l.09-.09,7.68-6.81c.32-.2.64-.41,1.07,0l1.18,1.14a2.31,2.31,0,0,1,1.28-.52,2,2,0,0,1,.85,0V9.83c-.64-.62-.75-2.07-.21-3.51.42-1.14,1.92-2.37,3.2-2,1.6.51,1.6,2.89.53,4a5.06,5.06,0,0,1-2.35,1.55v1.56a5.52,5.52,0,0,1,.64.41,4.91,4.91,0,0,1,1,3.61c-.43,2.37-2.78,5-4.06,6.18a14.2,14.2,0,0,1-3.84,2.48,8.27,8.27,0,0,1-2.49.57A.94.94,0,0,1,133.35,24.58Zm12.7-8.36a.8.8,0,0,1-.74-.82l.1-2a.8.8,0,0,1,.85-.72l1.5-.21a.79.79,0,0,1,.74.73L148,15.82a.82.82,0,0,1-.85.72Z"/><g id="Ellipse_673" data-name="Ellipse 673"><ellipse class="cls-2" cx="143.84" cy="6.09" rx="6.16" ry="6.09"/><ellipse class="cls-3" cx="143.84" cy="6.09" rx="5.4" ry="5.33"/></g></g></svg>