<svg id="Layer_1" data-name="Layer 1" xmlns="http://www.w3.org/2000/svg" viewBox="0 0 100 100"><defs><style>.cls-1{fill:#36424a;}.cls-2{fill:#fff;}</style></defs><title>cumulus-networks-logo-limed-spruce-circle</title><circle class="cls-1" cx="50" cy="50" r="50"/><path id="Union_116" data-name="Union 116" class="cls-2" d="M66.86,59.75V54.19h1.7v5.44c0,1.82.91,2.72,2.44,2.72s2.44-.85,2.44-2.67v-5.5h1.71v5.45c0,2.84-1.65,4.31-4.15,4.31S66.86,62.53,66.86,59.75Zm-18.73,0V54.19h1.7v5.44c0,1.82.91,2.72,2.44,2.72s2.44-.85,2.44-2.67v-5.5h1.71v5.45c0,2.84-1.65,4.31-4.15,4.31s-4.14-1.41-4.14-4.19Zm-22.53,0V54.19h1.7v5.44c0,1.82.91,2.72,2.44,2.72s2.44-.85,2.44-2.67v-5.5h1.71v5.45c0,2.84-1.65,4.31-4.15,4.31s-4.14-1.41-4.14-4.19ZM15.32,59a4.89,4.89,0,0,1,4.77-5h.17a5.09,5.09,0,0,1,3.8,1.53L23,56.73a3.63,3.63,0,0,0-2.67-1.13,3.42,3.42,0,0,0-3.18,3.63,3.36,3.36,0,0,0,3.12,3.18A3.59,3.59,0,0,0,23,61.16l1.08,1.08a4.85,4.85,0,0,1-3.91,1.7,4.82,4.82,0,0,1-4.83-4.82h0Zm61.41,3.4,1-1.25a4.5,4.5,0,0,0,3,1.25c1,0,1.7-.45,1.7-1.25s-.4-1-2.16-1.47c-2-.46-3.17-1.08-3.17-2.84s1.41-2.78,3.23-2.78a5.14,5.14,0,0,1,3.46,1.19l-.91,1.3a4,4,0,0,0-2.61-1c-1,0-1.59.51-1.59,1.14s.46,1,2.28,1.53c2,.45,3.06,1.25,3.06,2.78,0,1.81-1.42,2.84-3.41,2.84A5.53,5.53,0,0,1,76.73,62.41ZM36.27,63.83V54.18h1.87L41,58.72l2.89-4.54h1.82v9.59h-1.7V56.91l-3,4.54H41L38,57v6.86Zm22.58-.06V54.18h1.71v8.06h5v1.53Z"/><path class="cls-2" d="M53.6,41.78l-1.07.11c-.23,0-.34.23-.4.46l-.17.79h0c-.06.28.22.28.45.34l1.14-.34c.45,0,.56-.79.56-1A.44.44,0,0,0,53.6,41.78Z"/><polygon class="cls-2" points="40.21 47.17 48.89 39.23 47.93 38.43 40.21 47.17"/><path class="cls-2" d="M58.83,34.51l-.85.12a.47.47,0,0,0-.52.4l-.05,1.13a.11.11,0,0,0,0,.05.41.41,0,0,0,.4.41l.63.16a.45.45,0,0,0,.51-.39l.28-1.48v0A.39.39,0,0,0,58.83,34.51Z"/><path class="cls-2" d="M60,30.88a3.46,3.46,0,1,0-5.51,2.79,1.31,1.31,0,0,0-.4.22l-.68-.63h0a.44.44,0,0,0-.62,0l-4.37,3.86-.06.06a.36.36,0,0,0,.06.51l1,1c.17.17.51.11.74-.17s.91-1.14,1.7-2a18.94,18.94,0,0,1,1.93-1.87c.12-.06.17-.11.06.06A21,21,0,0,0,51.56,38c-.28.57-1.53,3-1,3.4h0c0,.06.17.11.45.06a5.88,5.88,0,0,0,1.42-.34,7.73,7.73,0,0,0,2.15-1.42A7.55,7.55,0,0,0,57,36.16a2.86,2.86,0,0,0-.43-1.82A3.52,3.52,0,0,0,60,30.88Zm-6.13,0V30.8a2.58,2.58,0,0,1,2.61-2.53,2.61,2.61,0,0,1,0,5.22,2.31,2.31,0,0,1-.46-.05V33a2.57,2.57,0,0,0,1.31-.85c.62-.62.62-2-.29-2.27-.74-.23-1.59.51-1.81,1.13a2.1,2.1,0,0,0,.11,2v.23A2.63,2.63,0,0,1,53.89,30.88Z"/></svg>