<svg id="Layer_1" data-name="Layer 1" xmlns="http://www.w3.org/2000/svg" viewBox="0 0 85 85"><defs><style>.cls-1{fill:#36424a;}.cls-2{fill:#fff;}</style></defs><title>cumulus-networks-logo-limed-spruce-square</title><rect class="cls-1" width="85" height="85"/><path id="Union_116" data-name="Union 116" class="cls-2" d="M58.14,53.27V48.11h1.58v5c0,1.69.84,2.53,2.26,2.53s2.27-.79,2.27-2.48V48.1h1.58v5.06c0,2.64-1.53,4-3.85,4S58.14,55.85,58.14,53.27Zm-17.4,0V48.11h1.58v5c0,1.69.85,2.53,2.27,2.53s2.27-.79,2.27-2.48V48.1h1.58v5.06c0,2.64-1.53,4-3.85,4a3.54,3.54,0,0,1-3.85-3.9Zm-20.92,0V48.11H21.4v5c0,1.69.84,2.53,2.27,2.53s2.26-.79,2.26-2.48V48.1h1.59v5.06c0,2.64-1.53,4-3.85,4a3.54,3.54,0,0,1-3.85-3.9Zm-9.54-.69a4.53,4.53,0,0,1,4.42-4.64h.16a4.71,4.71,0,0,1,3.53,1.43l-1,1.1a3.35,3.35,0,0,0-2.47-1,3.18,3.18,0,0,0-3,3.37,3.13,3.13,0,0,0,2.9,3,3.34,3.34,0,0,0,2.53-1.16l1,1a4.5,4.5,0,0,1-3.63,1.58,4.48,4.48,0,0,1-4.48-4.48h0Zm57,3.16.89-1.16A4.14,4.14,0,0,0,71,55.74c1,0,1.58-.42,1.58-1.16s-.37-.94-2-1.37c-1.9-.42-3-1-3-2.63a2.74,2.74,0,0,1,3-2.58,4.75,4.75,0,0,1,3.21,1.1L73,50.32a3.7,3.7,0,0,0-2.42-.9c-.9,0-1.48.47-1.48,1s.42,1,2.11,1.43c1.9.42,2.84,1.16,2.84,2.58,0,1.69-1.31,2.63-3.16,2.63A5.05,5.05,0,0,1,67.31,55.74ZM29.73,57.06v-9h1.74l2.69,4.22,2.68-4.22h1.69V57H37V50.63l-2.79,4.22H34.1l-2.79-4.16v6.37Zm21-.05V48.1h1.58v7.49H57V57Z"/><path class="cls-2" d="M45.83,36.58l-1,.11c-.22,0-.32.21-.37.42l-.16.74h0c-.06.26.21.26.42.32l1.05-.32c.42,0,.53-.74.53-1A.41.41,0,0,0,45.83,36.58Z"/><polygon class="cls-2" points="33.39 41.59 41.45 34.21 40.56 33.48 33.39 41.59"/><path class="cls-2" d="M50.68,29.84l-.79.1a.44.44,0,0,0-.48.37l0,1.06v.05a.36.36,0,0,0,.37.37l.58.16a.43.43,0,0,0,.47-.37l.27-1.37v0A.36.36,0,0,0,50.68,29.84Z"/><path class="cls-2" d="M51.79,26.46a3.22,3.22,0,1,0-5.12,2.59,1,1,0,0,0-.37.21l-.63-.58h0a.41.41,0,0,0-.58,0L41,32.26l-.05.06a.33.33,0,0,0,.05.47l.95.9a.49.49,0,0,0,.68-.16c.11-.16.85-1.06,1.58-1.85A18.49,18.49,0,0,1,46,29.94c.1-.05.16-.1.05.06a20.27,20.27,0,0,0-2.16,3c-.26.53-1.42,2.75-.9,3.17h0c.06.05.16.1.42.05A5.42,5.42,0,0,0,44.77,36a7.16,7.16,0,0,0,2-1.32,6.94,6.94,0,0,0,2.16-3.26,2.63,2.63,0,0,0-.39-1.69A3.28,3.28,0,0,0,51.79,26.46Zm-5.7,0v-.07a2.43,2.43,0,0,1,4.85.07,2.42,2.42,0,0,1-2.42,2.43,2,2,0,0,1-.43-.05v-.43a2.24,2.24,0,0,0,1.21-.79c.58-.58.58-1.84-.26-2.11-.69-.21-1.48.48-1.69,1.06a1.94,1.94,0,0,0,.11,1.84v.22A2.48,2.48,0,0,1,46.09,26.46Z"/></svg>