<?xml version="1.0" encoding="UTF-8" standalone="no"?>
<!-- Generator: Adobe Illustrator 16.0.3, SVG Export Plug-In . SVG Version: 6.00 Build 0)  -->

<svg
   xmlns:dc="http://purl.org/dc/elements/1.1/"
   xmlns:cc="http://creativecommons.org/ns#"
   xmlns:rdf="http://www.w3.org/1999/02/22-rdf-syntax-ns#"
   xmlns:svg="http://www.w3.org/2000/svg"
   xmlns="http://www.w3.org/2000/svg"
   xmlns:sodipodi="http://sodipodi.sourceforge.net/DTD/sodipodi-0.dtd"
   xmlns:inkscape="http://www.inkscape.org/namespaces/inkscape"
   version="1.1"
   x="0px"
   y="0px"
   width="13"
   height="13"
   viewBox="0 0 13 13"
   enable-background="new 0 0 24 24"
   xml:space="preserve"
   id="svg4151"
   sodipodi:docname="alarm-sound-12.svg"
   inkscape:version="0.92.2 5c3e80d, 2017-08-06"><metadata
     id="metadata4157"><rdf:RDF><cc:Work
         rdf:about=""><dc:format>image/svg+xml</dc:format><dc:type
           rdf:resource="http://purl.org/dc/dcmitype/StillImage" /><dc:title></dc:title></cc:Work></rdf:RDF></metadata><defs
     id="defs4155" /><sodipodi:namedview
     pagecolor="#ffffff"
     bordercolor="#666666"
     borderopacity="1"
     objecttolerance="10"
     gridtolerance="10"
     guidetolerance="10"
     inkscape:pageopacity="0"
     inkscape:pageshadow="2"
     inkscape:window-width="1404"
     inkscape:window-height="852"
     id="namedview4153"
     showgrid="false"
     inkscape:zoom="2"
     inkscape:cx="-56.5"
     inkscape:cy="52"
     inkscape:window-x="0"
     inkscape:window-y="0"
     inkscape:window-maximized="0"
     inkscape:current-layer="svg4151" /><g
     id="Outline_Icons_1_"
     transform="matrix(0.49999792,0,0,0.49999792,0.25000728,0.2500447)"><g
       id="Outline_Icons"><g
         id="g4143"><path
           stroke-miterlimit="10"
           d="M 18.5,19.5 V 15 c 0,-2.703 -1.652,-5.021 -4,-6 0,-1.381 -1.121,-2.5 -2.5,-2.5 -1.382,0 -2.5,1.119 -2.5,2.5 -2.351,0.979 -4,3.297 -4,6 v 4.5 c 0,1.104 -0.896,2 -2,2 h 17 c -1.105,0 -2,-0.896 -2,-2 z"
           id="path4131"
           inkscape:connector-curvature="0"
           style="fill:none;stroke:#000000;stroke-linecap:round;stroke-linejoin:round;stroke-miterlimit:10" /><path
           stroke-miterlimit="10"
           d="m 14,21.5 c 0,1.104 -0.896,2 -2,2 -1.106,0 -2,-0.896 -2,-2"
           id="path4133"
           inkscape:connector-curvature="0"
           style="fill:none;stroke:#000000;stroke-linecap:round;stroke-linejoin:round;stroke-miterlimit:10" /><path
           stroke-miterlimit="10"
           d="M 3.5,9 C 3.5,5.963 5.96,3.5 9,3.5"
           id="path4135"
           inkscape:connector-curvature="0"
           style="fill:none;stroke:#000000;stroke-linecap:round;stroke-linejoin:round;stroke-miterlimit:10" /><path
           stroke-miterlimit="10"
           d="M 0.5,9 C 0.5,4.306 4.304,0.5 9,0.5"
           id="path4137"
           inkscape:connector-curvature="0"
           style="fill:none;stroke:#000000;stroke-linecap:round;stroke-linejoin:round;stroke-miterlimit:10" /><path
           stroke-miterlimit="10"
           d="M 20.5,9 C 20.5,5.963 18.035,3.5 15,3.5"
           id="path4139"
           inkscape:connector-curvature="0"
           style="fill:none;stroke:#000000;stroke-linecap:round;stroke-linejoin:round;stroke-miterlimit:10" /><path
           stroke-miterlimit="10"
           d="M 23.5,9 C 23.5,4.306 19.693,0.5 15,0.5"
           id="path4141"
           inkscape:connector-curvature="0"
           style="fill:none;stroke:#000000;stroke-linecap:round;stroke-linejoin:round;stroke-miterlimit:10" /></g></g><g
       id="New_icons_1_" /></g><g
     id="Invisible_Shape"
     transform="translate(0,-11)"><rect
       width="24"
       height="24"
       id="rect4148"
       x="0"
       y="0"
       style="fill:none" /></g></svg>