<?xml version="1.0" encoding="UTF-8"?><svg version="1.1" viewBox="0 0 24 24" xmlns="http://www.w3.org/2000/svg" xmlns:xlink="http://www.w3.org/1999/xlink"><!--Generated by IJSVG (https://github.com/iconjar/IJSVG)--><g stroke-width="1" stroke="#000" fill="none" stroke-linejoin="round"><path d="M16.667,23.333l-6.667,-13.333l13.333,6.667l-5.333,1.333Z"></path><path stroke-linecap="round" d="M11.528,19.378c-0.498,0.08 -1.008,0.122 -1.528,0.122c-5.247,0 -9.5,-4.253 -9.5,-9.5c0,-5.246 4.253,-9.5 9.5,-9.5c5.247,0 9.5,4.254 9.5,9.5c0,0.533 -0.044,1.056 -0.129,1.566"></path><path stroke-linecap="round" d="M10,15.5c-3.037,0 -5.5,-2.462 -5.5,-5.5c0,-3.038 2.463,-5.5 5.5,-5.5c3.037,0 5.5,2.462 5.5,5.5"></path></g><path fill="none" d="M0,0h24v24h-24Z"></path></svg>